<?xml version="1.0" encoding="UTF-8"?>
<!DOCTYPE svg PUBLIC "-//W3C//DTD SVG 1.1//EN" "http://www.w3.org/Graphics/SVG/1.1/DTD/svg11.dtd">
<!-- Creator: CorelDRAW X8 -->
<svg xmlns="http://www.w3.org/2000/svg" xml:space="preserve" width="40px" height="21px" version="1.1" style="shape-rendering:geometricPrecision; text-rendering:geometricPrecision; image-rendering:optimizeQuality; fill-rule:evenodd; clip-rule:evenodd"
viewBox="0 0 23362 12319"
 xmlns:xlink="http://www.w3.org/1999/xlink">
 <defs>
  <style type="text/css">
   <![CDATA[
    .fil0 {fill:#C23616;fill-rule:nonzero}
   ]]>
  </style>
 </defs>
 <g id="Capa_x0020_1">
  <metadata id="CorelCorpID_0Corel-Layer"/>
  <g id="_2411776988784">
   <path class="fil0" d="M16820 1093l-2952 0c-121,0 -219,98 -219,219l0 1312c0,121 98,219 219,219l2952 0c121,0 219,-98 219,-219l0 -1312c0,-121 -98,-219 -219,-219zm-218 1312l-2515 0 0 -874 2515 0 0 874z"/>
   <path class="fil0" d="M21101 1288c-12,-111 -106,-195 -217,-195l-2952 0c-121,0 -219,98 -219,219l0 1312c0,121 98,219 219,219l3098 0c62,0 121,-27 163,-73 41,-46 61,-108 54,-170l-146 -1312zm-2950 1117l0 -874 2537 0 98 874 -2635 0z"/>
   <path class="fil0" d="M12756 1093l-2952 0c-121,0 -219,98 -219,219l0 1312c0,121 98,219 219,219l2952 0c121,0 219,-98 219,-219l0 -1312c0,-121 -98,-219 -219,-219zm-218 1312l-2515 0 0 -874 2515 0 0 874z"/>
   <path class="fil0" d="M8693 1093l-2953 0c-120,0 -218,98 -218,219l0 1312c0,121 98,219 218,219l2953 0c120,0 218,-98 218,-219l0 -1312c0,-121 -98,-219 -218,-219zm-219 1312l-2515 0 0 -874 2515 0 0 874z"/>
   <path class="fil0" d="M15125 7690l2369 0c121,0 219,-98 219,-218l0 -1313c0,-120 -98,-218 -219,-218l-2369 0c-121,0 -219,98 -219,218l0 1313c0,120 98,218 219,218zm218 -1312l1933 0 0 875 -1933 0 0 -875z"/>
   <path class="fil0" d="M11675 7690l2369 0c121,0 219,-98 219,-218l0 -1313c0,-120 -98,-218 -219,-218l-2369 0c-121,0 -219,98 -219,218l0 1313c0,120 98,218 219,218zm218 -1312l1933 0 0 875 -1933 0 0 -875z"/>
   <path class="fil0" d="M8224 7690l2370 0c121,0 219,-98 219,-218l0 -1313c0,-120 -98,-218 -219,-218l-2370 0c-121,0 -218,98 -218,218l0 1313c0,120 98,218 218,218zm219 -1312l1932 0 0 875 -1932 0 0 -875z"/>
   <path class="fil0" d="M4774 7690l2370 0c120,0 218,-98 218,-218l0 -1313c0,-120 -98,-218 -218,-218l-2370 0c-121,0 -219,98 -219,218l0 1313c0,120 98,218 219,218zm219 -1312l1932 0 0 875 -1932 0 0 -875z"/>
   <path class="fil0" d="M4629 1093l-1973 0c-661,0 -1198,538 -1198,1198l0 333c0,121 98,219 219,219l2952 0c120,0 218,-98 218,-219l0 -1312c0,-121 -98,-219 -218,-219zm-219 1312l-2515 0 0 -114c0,-419 341,-760 761,-760l1754 0 0 874z"/>
   <path class="fil0" d="M6488 9548c-463,0 -840,377 -840,839 0,463 377,840 840,840 462,0 839,-377 839,-840 0,-462 -377,-839 -839,-839zm0 1241c-222,0 -402,-180 -402,-402 0,-221 180,-401 402,-401 221,0 402,180 402,401 0,222 -181,402 -402,402z"/>
   <path class="fil0" d="M20374 9548c-463,0 -840,377 -840,839 0,463 377,840 840,840 463,0 839,-377 839,-840 0,-462 -376,-839 -839,-839zm0 1241c-222,0 -402,-180 -402,-402 0,-221 180,-401 402,-401 221,0 402,180 402,401 0,222 -181,402 -402,402z"/>
   <path class="fil0" d="M23144 10059l-255 0 0 -1749c0,-73 -36,-140 -97,-181 -24,-17 -339,-224 -1033,-423l0 -2385 510 0c64,0 124,-27 166,-76 41,-48 60,-112 50,-175l-623 -4175c-76,-510 -522,-895 -1038,-895l-18199 0c-1407,0 -2552,1145 -2552,2553l0 2550c0,120 98,218 219,218l182 0 0 4848 -255 0c-121,0 -219,98 -219,218 0,121 98,219 219,219l255 0 0 255c0,121 98,219 218,219l3987 0c279,724 982,1239 1803,1239 821,0 1524,-515 1803,-1239l10323 0c289,704 981,1201 1788,1201 1015,0 1849,-788 1925,-1784l823 0c121,0 218,-98 218,-219 0,-121 -97,-219 -218,-219zm-22634 -7506c0,-1167 949,-2115 2115,-2115l18199 0c301,0 561,224 606,521l433 2904 -21353 0 0 -1310zm1567 8090l-1166 0 0 -556 1166 0 0 556zm0 -994l-1166 0 0 -546 1166 0 0 546zm0 -984l-1166 0 0 -546 1166 0 0 546zm0 -984l-1166 0 0 -546 1166 0 0 546zm0 -984l-1166 0 0 -1376 1166 0 0 1376zm1568 3946l-1130 0 0 -5322 1130 0 0 5322zm923 0l-486 0 0 -1567 984 0c-320,344 -516,805 -516,1311 0,87 7,172 18,256zm1914 1239c-824,0 -1494,-671 -1494,-1495 0,-823 670,-1494 1494,-1494 824,0 1494,671 1494,1494 0,824 -670,1495 -1494,1495zm11887 -1239l-9972 0c1,-1 -1,-1 -1,-1 11,-84 18,-168 18,-255 0,-506 -196,-967 -516,-1311l10471 0 0 1567zm0 -1993l-11044 0c-255,-124 -541,-194 -843,-194 -298,0 -580,68 -832,188l-1568 0 0 -3323 14287 0 0 3329zm-17859 -3766l0 -583 21418 0 87 583 -21505 0zm20064 911l-1768 0 0 -474 2515 0 0 2273c-161,-36 -337,-70 -528,-102l0 -1478c0,-121 -98,-219 -219,-219zm-219 438l0 1196c-445,-56 -960,-94 -1549,-101l0 -1095 1549 0zm41 5611c-824,0 -1495,-671 -1495,-1495 0,-824 671,-1494 1495,-1494 824,0 1494,670 1494,1494 0,824 -670,1495 -1494,1495zm2055 -1785l-145 0 0 1c-140,-929 -943,-1642 -1910,-1642 -658,0 -1241,331 -1590,835l0 -1488c1360,18 2289,205 2837,363 417,120 679,241 808,309l0 1622z"/>
  </g>
 </g>
</svg>
