<?xml version="1.0" encoding="UTF-8"?>
<!DOCTYPE svg PUBLIC "-//W3C//DTD SVG 1.1//EN" "http://www.w3.org/Graphics/SVG/1.1/DTD/svg11.dtd">
<!-- Creator: CorelDRAW X8 -->
<svg xmlns="http://www.w3.org/2000/svg" xml:space="preserve" width="65px" height="16px" version="1.1" style="shape-rendering:geometricPrecision; text-rendering:geometricPrecision; image-rendering:optimizeQuality; fill-rule:evenodd; clip-rule:evenodd"
viewBox="0 0 4784 1186"
 xmlns:xlink="http://www.w3.org/1999/xlink">
 <defs>
  <style type="text/css">
   <![CDATA[
    .fil0 {fill:#FEFEFE}
    .fil1 {fill:#131314}
    .fil2 {fill:url(#id0)}
   ]]>
  </style>
  <linearGradient id="id0" gradientUnits="userSpaceOnUse" x1="1935.24" y1="418.538" x2="2166.91" y2="711.48">
   <stop offset="0" style="stop-opacity:1; stop-color:#FFD630"/>
   <stop offset="0.160784" style="stop-opacity:1; stop-color:#FFD630"/>
   <stop offset="0.980392" style="stop-opacity:1; stop-color:#F37021"/>
   <stop offset="1" style="stop-opacity:1; stop-color:#F37021"/>
  </linearGradient>
 </defs>
 <g id="Capa_x0020_1">
  <metadata id="CorelCorpID_0Corel-Layer"/>
  <g id="_2731007107232">
   <path class="fil0" d="M452 361c0,-9 -4,-13 -14,-13l-257 0 0 472 257 0c10,0 14,-4 14,-12l0 -447zm182 459c0,14 -5,28 -14,40 -9,12 -20,23 -35,31 -14,8 -30,15 -48,20 -18,4 -36,6 -54,6l-302 0 0 241 -181 0 0 -906 483 0c18,0 36,2 54,6 18,4 34,11 48,19 15,8 26,19 35,31 9,12 14,25 14,40l0 472zm528 -291l-258 0c-9,0 -14,5 -14,14l0 265c0,8 5,12 14,12l258 0 0 -291zm-302 388c-38,0 -72,-9 -102,-26 -32,-19 -49,-42 -49,-71l0 -291c0,-28 16,-52 49,-71 31,-17 66,-25 102,-25l302 0 0 -72c0,-9 -5,-13 -15,-13l-408 0 0 -96 453 0c19,0 36,2 54,6 18,4 34,11 49,19 14,8 26,19 34,31 9,12 14,25 14,40l0 569 -483 0zm2267 0l0 -556c0,-9 -6,-13 -15,-13l-243 0c-9,0 -14,4 -14,13l0 556 -181 0 0 -569c0,-28 16,-53 49,-72 30,-17 65,-24 101,-24l333 0c18,0 36,2 54,6 18,4 34,11 48,19 14,8 26,19 35,31 8,11 14,25 14,40l0 569 -181 0zm738 -388l-258 0c-9,0 -14,5 -14,14l0 265c0,7 5,12 14,12l258 0 0 -291zm-302 388c-38,0 -72,-9 -102,-26 -32,-19 -49,-42 -49,-71l0 -291c0,-28 16,-52 49,-71 31,-17 65,-25 102,-25l302 0 0 -72c0,-9 -6,-13 -15,-13l-408 0 0 -96 453 0c18,0 36,2 54,6 18,4 34,11 48,19 15,8 27,19 35,31 9,11 14,25 14,40l0 569 -483 0zm1221 -97c0,14 -6,28 -14,40 -9,12 -21,23 -35,31 -14,8 -31,15 -48,20 -18,4 -37,6 -54,6l-483 0 0 -97 437 0c11,0 15,-4 15,-12l0 -164c0,-8 -5,-11 -15,-11l-287 0c-36,0 -71,-9 -102,-25 -32,-18 -48,-43 -48,-73l0 -187c0,-28 16,-53 48,-72 31,-17 66,-24 102,-24l484 0 0 96 -439 0c-9,0 -15,4 -15,13l0 162c0,7 5,12 15,12l288 0c17,0 36,2 54,7 17,4 34,11 48,20 14,8 26,19 35,31 8,11 14,25 14,40l0 187z"/>
   <path class="fil1" d="M1994 160c-6,28 -10,58 -13,91 -3,49 -5,101 -3,155 1,31 -24,57 -56,57 -12,1 -23,-3 -32,-8l0 0 -232 -145c-3,3 -7,4 -11,6l-12 16c-10,15 -27,24 -45,25 9,9 21,20 35,32 19,17 55,40 99,68 49,31 107,68 171,115 25,19 30,54 11,78 -2,4 -5,6 -8,9l0 0c-40,33 -69,58 -95,80 -87,74 -136,117 -260,196l-4 9 -5 50 22 18 10 4 32 -8c15,-3 29,-1 41,5 64,-49 112,-98 170,-158 31,-32 65,-67 100,-100 22,-21 59,-21 82,0 10,10 15,23 16,35 4,47 8,93 12,142 1,33 3,65 4,96l24 5c6,1 12,3 16,5 0,-40 -1,-82 -2,-123 -1,-36 -1,-71 -2,-109 0,-31 25,-56 57,-56 11,0 22,3 31,8l238 146c-1,-12 1,-24 7,-34 -2,-16 4,-33 15,-45l-278 -211c-25,-19 -29,-55 -9,-79 2,-3 5,-5 8,-8l321 -286 -18 -30c-4,-7 -6,-16 -7,-24 -53,50 -107,101 -156,147 -38,36 -73,69 -104,97 -23,22 -59,21 -81,-1 -11,-12 -17,-27 -16,-43l0 0c4,-44 9,-90 15,-137 5,-37 11,-75 19,-112l-28 -25 -27 2 -7 3 -13 19c-7,11 -19,19 -32,23l0 0zm-127 82c4,-52 11,-101 24,-144 5,-23 25,-41 50,-44l4 -1 7 -10c6,-11 16,-19 29,-24l32 -11c6,-2 11,-3 17,-3l60 -5c15,0 31,4 43,15l53 47 -1 0c4,3 7,7 10,11l14 21c9,12 12,27 9,43 -7,35 -14,71 -19,107 47,-45 98,-94 160,-150l51 -46c21,-21 57,-22 79,-2l38 34 14 7c4,2 8,4 12,6 25,19 30,54 11,79l-13 17 8 15 0 0c4,7 7,16 7,25l1 29c1,17 -5,34 -18,46l-296 263 251 190 0 0c10,7 17,17 20,29l9 29c6,18 2,40 -13,56l-8 8c0,6 -1,13 -3,19 2,3 3,8 3,11l0 0c2,7 3,13 3,20 0,11 -2,22 -6,32 0,1 -1,3 -2,4 -4,11 -11,21 -19,30 -7,7 -16,14 -27,21 -8,5 -18,11 -28,16 -18,9 -40,9 -58,-3l-200 -121 1 5c1,51 2,102 2,153 1,15 0,34 1,49 2,31 -21,58 -53,60l-46 3 -15 5c-2,0 -5,1 -6,2 -32,6 -63,-13 -69,-44l-2 -6 -10 -2 0 0c-8,-1 -15,-5 -22,-9l-24 -16c-14,-10 -24,-27 -24,-46 0,-36 -1,-78 -4,-123l-1 -17 -10 10c-72,73 -130,132 -220,197l0 0c-21,15 -50,15 -71,-2l-4 -3 -23 5 0 0c-12,3 -25,3 -38,-3l-34 -15c-7,-2 -13,-5 -18,-11l-49 -43 0 0c-13,-12 -20,-29 -18,-46l7 -82c0,-5 1,-11 4,-17l12 -32c4,-12 11,-21 22,-28 131,-82 178,-123 263,-195l43 -36c-38,-26 -76,-50 -109,-71 -48,-31 -87,-56 -111,-77 -25,-21 -44,-40 -57,-55 -20,-23 -30,-45 -30,-66 0,-10 3,-22 6,-32 4,-10 8,-19 14,-29 6,-10 13,-19 21,-26 6,-7 14,-13 22,-19 11,-8 25,-12 39,-12l2 -3c7,-11 19,-20 34,-23l0 -1c18,-25 53,-32 79,-16l184 115c1,-22 2,-43 4,-64l0 0z"/>
   <path class="fil2" d="M1949 109c-24,81 -29,185 -26,300l-264 -172 -18 25 -16 -1 -25 41 -26 -12c-11,8 -21,18 -28,30 -8,12 -12,24 -12,33 0,14 22,40 66,78 43,39 150,100 264,187 -156,136 -185,174 -354,283l-11 33 -8 85 47 44 36 16 50 -13 26 22c117,-88 179,-168 300,-291 9,98 16,191 16,269l23 16 46 9 9 43 24 -7 50 -4 -2 -52c0,-88 -2,-175 -4,-263l280 177c18,-8 31,-16 39,-25 8,-8 12,-17 12,-28 0,-4 -2,-9 -4,-13 -2,-6 -6,-12 -11,-19l12 -20 -6 -14 28 -31 -9 -32 -294 -232 334 -308 -1 -33 -25 -46 34 -47 -24 -13 -41 -37 -51 48c-104,97 -191,187 -265,256 7,-89 18,-178 36,-266l-15 -23 -51 -47 -58 4 -32 12 -22 34 -29 4z"/>
  </g>
 </g>
</svg>
